<?xml version="1.0" encoding="utf-8"?>
<!-- Generator: Adobe Illustrator 22.0.1, SVG Export Plug-In . SVG Version: 6.00 Build 0)  -->
<svg version="1.1" id="Layer_1" xmlns="http://www.w3.org/2000/svg" xmlns:xlink="http://www.w3.org/1999/xlink" x="0px" y="0px"
	 viewBox="0 0 226.4 261" style="enable-background:new 0 0 226.4 261;" xml:space="preserve">
<style type="text/css">
	.st0{fill:#CE7304;}
</style>
<g>
	<path class="st0" d="M72.4,212.2c-16.6-0.1-31-8.9-34.7-25c-0.7-3.1-0.8-6.3-0.9-9.5c-0.1-6.8-0.1-13.5,0-20.4c0-1.2-1-2.3-2.2-2.3
		c0,0,0,0,0,0c-2.3-2.1-6.1,0-9.1,0c-5.7-0.1-8.9-4.7-6.8-10c2.3-6,4.7-12,7.1-17.9c3.5-8.8,7.1-17.5,10.4-26.4c1.1-3,1-6.4,1.8-9.5
		c7.7-32.5,27.3-54.3,59.4-63.5c42.1-12,85.5,10,100.5,51.2c11.5,31.7,5.3,60.8-17.2,86.1c-1.1,1.2-1.6,2.4-1.6,4.1
		c0.1,23.1,0,46.3,0,69.4l0,0.2c0,1.3-1,2.3-2.3,2.3l-89,0c-1.3,0-2.3-1-2.3-2.3l1.5-28.1 M119.2,147.7 M135.2,153.1
		c0.8,0.2,1.4,0.3,1.9,0.5c10.8,2.7,21.3,1.9,31-3.6c18.8-10.6,27.1-27.3,26.6-48.4c-0.6-23.4-11.3-41.7-30.2-55.2
		c-12.7-9.1-27.1-13.3-42.5-13.9c-11.1-0.5-22.2,0.2-32.7,4.2C69,44.5,55.7,59.5,48,79.7c-1.8,4.7-2.8,9.6-1.9,14.6
		c2.4,13.8,9.4,24.7,20.9,32.6"/>
</g>
<g>
	<path class="st0" d="M168.6,120.6c-2.3-0.3-4.6-0.6-6.9-1c-0.8-0.1-1.3,0.1-1.9,0.8c-1.4,1.6-3,3.1-4.6,4.5
		c-0.4,0.4-0.6,0.6-0.5,1.2c0.4,2.4,0.7,4.8,1.1,7.4c-2.3,0.8-4.5,1.6-6.8,2.4c-0.2,0.1-0.7-0.2-0.8-0.4c-1.2-1.9-2.3-3.8-3.4-5.7
		c-0.3-0.5-0.6-0.6-1.2-0.7c-2.2-0.2-4.5-0.4-6.7-0.8c-0.6-0.1-0.9-0.1-1.3,0.4c-1.7,1.8-3.3,3.6-5.1,5.4c-2.2-1.4-4.3-2.7-6.5-4
		c0.9-2.3,1.7-4.5,2.5-6.7c0.3-0.6,0.2-1-0.2-1.6c-1.3-1.8-2.4-3.7-3.5-5.6c-0.3-0.4-0.5-0.7-1-0.7c-2.2-0.1-4.3-0.4-6.5-0.5
		c-0.7,0-1-0.3-1-1c-0.2-1.9-0.4-3.9-0.7-5.8c-0.1-0.8,0.1-1,0.8-1.2c2-0.6,4-1.3,6-1.9c0.6-0.2,0.9-0.5,1-1.1
		c0.7-2.2,1.5-4.3,2.2-6.4c0.1-0.3,0.1-0.8-0.1-1.1c-1.3-2.1-2.7-4.1-4-6c1.8-1.8,3.6-3.6,5.5-5.4c1.8,1.2,3.8,2.5,5.7,3.8
		c0.6,0.4,1,0.4,1.7,0.1c1.9-0.8,3.9-1.5,6-2.1c0.7-0.2,1.1-0.5,1.3-1.2c0.7-2.2,1.4-4.5,2.1-6.8c2.4,0.3,4.8,0.5,7.1,0.8
		c0.2,0,0.5,0.5,0.5,0.8c0.2,2.2,0.4,4.5,0.6,6.7c0,0.3,0.4,0.7,0.7,0.9c1.9,1.3,3.9,2.5,5.9,3.7c0.3,0.2,0.8,0.3,1.1,0.2
		c2.3-0.8,4.6-1.7,7-2.6c1.3,2.1,2.7,4.2,3.9,6.1c-1,1.2-2,2.3-3,3.4c-0.8,0.9-2.1,1.5-2.4,2.5c-0.3,0.9,0.4,2.2,0.5,3.3
		c0.2,1.4,0.2,2.8,0.2,4.2c0,0.6,0.2,0.9,0.7,1.2c1.9,1.1,3.8,2.2,5.7,3.3c0.5,0.3,0.7,0.6,0.5,1.2
		C170,116.2,169.3,118.4,168.6,120.6z M127.5,107.2c-0.1,8.1,6.5,14.8,14.5,14.8c8.2,0.1,14.9-6.4,15-14.5c0.1-8.3-6.4-15-14.6-15
		C134.2,92.4,127.6,99,127.5,107.2z"/>
	<path class="st0" d="M115.5,79.7c-1.5,1.4-2.9,2.8-4.3,4.1c-0.5,0.5-0.5,0.9-0.4,1.5c0.3,1.7,0.4,3.5,0.6,5.3c0,0.4,0.3,0.8,0.5,1
		c1.5,1,3,1.8,4.6,2.7c0.5,0.3,0.7,0.6,0.4,1.2c-0.6,1.5-1.1,3-1.5,4.5c-0.2,0.7-0.5,0.8-1.2,0.7c-1.7-0.3-3.4-0.5-5.1-0.7
		c-0.6-0.1-0.9,0.1-1.3,0.5c-1.2,1.3-2.4,2.6-3.7,3.8c-0.5,0.4-0.6,0.8-0.5,1.4c0.3,1.7,0.5,3.3,0.8,5c0.1,0.7-0.1,1-0.8,1.2
		c-1.7,0.5-3.4,1.2-5.2,1.8c-1-1.8-2.1-3.4-3.1-5.2c-0.3-0.5-0.6-0.6-1.2-0.7c-1.8-0.1-3.7-0.4-5.5-0.6c-0.4,0-0.8,0.1-1.1,0.3
		c-1.3,1.3-2.5,2.6-3.7,3.9c-0.4,0.4-0.7,0.5-1.2,0.2c-1.3-0.9-2.7-1.8-4.1-2.6c-0.6-0.3-0.6-0.7-0.4-1.2c0.6-1.6,1.2-3.3,1.9-4.9
		c0.2-0.5,0.1-0.8-0.2-1.3c-1-1.5-2-3-2.9-4.6c-0.3-0.5-0.6-0.8-1.2-0.8C74,96.1,72,95.9,70,95.7c-0.2-2.1-0.5-4.2-0.7-6.3
		c1.9-0.6,3.7-1.2,5.6-1.8c0.6-0.2,0.9-0.5,1.1-1.2c0.5-1.9,1.2-3.8,1.9-5.9c-1.1-1.6-2.3-3.5-3.6-5.3c1.5-1.5,3-3,4.6-4.5
		c1.5,1,3.2,2.1,4.8,3.2c0.6,0.4,0.9,0.3,1.5,0.1c1.6-0.7,3.3-1.2,5-1.8c0.4-0.1,0.8-0.5,0.9-0.8c0.7-1.9,1.2-3.8,1.9-5.8
		c2,0.2,3.9,0.4,5.8,0.6c0.2,0,0.6,0.5,0.6,0.8c0.2,1.7,0.3,3.5,0.5,5.2c0,0.6,0.3,0.9,0.8,1.1c1.6,0.9,3.1,1.8,4.6,2.9
		c0.5,0.3,0.8,0.4,1.3,0.2c1.6-0.7,3.3-1.3,4.9-1.9c0.4-0.2,0.8-0.3,1.1,0.3C113.4,76.4,114.4,78,115.5,79.7z M93.3,101.9
		c6.7,0,12.3-5.5,12.3-12.2c0-6.8-5.5-12.4-12.3-12.4c-6.9,0-12.4,5.6-12.4,12.5C80.9,96.4,86.5,101.9,93.3,101.9z"/>
	<path class="st0" d="M121.3,82c-1.4-0.8-2.7-1.7-4-2.5c0.5-1.4,1-2.7,1.5-4c0.2-0.5,0.2-0.9-0.2-1.4c-0.7-1-1.3-2.1-2-3.1
		c-0.2-0.3-0.6-0.6-0.9-0.7c-1.4-0.2-2.9-0.3-4.4-0.4c-0.2-1.6-0.4-3.1-0.5-4.7c1.4-0.5,2.7-0.9,4.1-1.3c0.5-0.2,0.8-0.4,0.9-1
		c0.3-1.2,0.8-2.3,1.2-3.5c0.1-0.4,0.1-0.9-0.1-1.2c-0.7-1.2-1.6-2.4-2.3-3.5c1.2-1.1,2.2-2.2,3.4-3.4c1.1,0.7,2.3,1.5,3.5,2.3
		c0.4,0.3,0.8,0.3,1.3,0.1c1.2-0.5,2.4-0.8,3.6-1.3c0.3-0.1,0.7-0.4,0.8-0.7c0.4-1.1,0.8-2.3,1.1-3.4c0.2-0.6,0.4-0.8,1-0.7
		c1.3,0.2,2.6,0.3,4,0.5c0.1,1.4,0.3,2.8,0.4,4.2c0,0.6,0.2,0.9,0.8,1.1c1.1,0.6,2.1,1.2,3.1,1.9c0.5,0.4,0.9,0.4,1.4,0.2
		c1.3-0.5,2.6-1,3.9-1.5c0.8,1.3,1.7,2.6,2.5,4c-1.1,1-2.1,2-3.1,3c-0.4,0.4-0.4,0.7-0.3,1.2c0.2,1.2,0.3,2.5,0.5,3.7
		c0.1,0.4,0.3,0.9,0.6,1.1c1,0.7,2.1,1.2,3.1,1.9c0.2,0.2,0.5,0.7,0.4,0.9c-0.4,1.3-0.9,2.5-1.3,3.9c-1.4-0.2-2.8-0.4-4.2-0.6
		c-0.5-0.1-0.9,0-1.3,0.5c-0.8,1-1.8,1.8-2.7,2.7c-0.2,0.2-0.4,0.7-0.4,1c0.1,1.2,0.3,2.4,0.5,3.6c0.1,0.5,0,0.9-0.6,1
		c-1.1,0.3-2.1,0.8-3.1,1.1c-0.3,0.1-0.8-0.1-0.9-0.3c-0.7-1-1.3-2.1-2-3.2c-0.2-0.3-0.6-0.5-1-0.6c-1.3-0.2-2.5-0.3-3.8-0.4
		c-0.4,0-0.9,0.1-1.1,0.3C123.3,79.8,122.4,80.9,121.3,82z M128.7,56.2c-5.1-0.1-9.2,4-9.3,9c-0.1,5.1,4.1,9.3,9.1,9.3
		c5,0,9.2-4.1,9.2-9.1C137.8,60.4,133.8,56.3,128.7,56.2z"/>
	<path class="st0" d="M128.4,107.2c0-7.7,6.2-13.9,14-13.8c7.7,0,13.9,6.3,13.9,14c-0.1,7.6-6.4,13.9-14,13.8
		C134.5,121.2,128.3,114.9,128.4,107.2z M133.7,107.3c0,4.8,3.8,8.6,8.6,8.7c4.7,0,8.7-3.9,8.7-8.7c0-4.8-3.9-8.7-8.8-8.6
		C137.5,98.6,133.6,102.5,133.7,107.3z"/>
	<path class="st0" d="M104.8,89.6c0,6.4-5.2,11.6-11.6,11.6c-6.4,0-11.6-5.3-11.6-11.7c0-6.4,5.3-11.6,11.7-11.5
		C99.7,78,104.9,83.2,104.8,89.6z M100.4,89.5c0-4-3.3-7.3-7.3-7.2c-3.9,0-7.1,3.3-7.1,7.2c0,4,3.3,7.2,7.3,7.2
		C97.2,96.8,100.5,93.5,100.4,89.5z"/>
	<path class="st0" d="M128.6,74c-4.8,0-8.6-3.9-8.6-8.7c0-4.8,3.9-8.7,8.7-8.6c4.7,0,8.6,4,8.6,8.7C137.3,70.2,133.3,74,128.6,74z
		 M128.7,60c-3-0.1-5.4,2.3-5.5,5.3c0,2.9,2.3,5.4,5.3,5.4c2.9,0.1,5.4-2.3,5.5-5.3C134.1,62.6,131.7,60.1,128.7,60z"/>
</g>
</svg>
